<svg width="28" height="28" viewBox="0 0 28 28" fill="none" xmlns="http://www.w3.org/2000/svg">
<path d="M14.002 14.5397C18.002 14.5397 21.2718 11.2699 21.2718 7.26985C21.2718 3.26983 18.002 0 14.002 0C10.0019 0 6.73218 3.26983 6.73218 7.26985C6.73218 11.2699 10.002 14.5397 14.002 14.5397Z" fill="#131313" fill-opacity="0.8"/>
<path d="M26.4782 20.3493C26.2877 19.8731 26.0338 19.4286 25.7481 19.0159C24.2877 16.8572 22.0338 15.4286 19.4941 15.0794C19.1767 15.0477 18.8275 15.1111 18.5735 15.3016C17.2402 16.2858 15.6529 16.7937 14.002 16.7937C12.3512 16.7937 10.7639 16.2858 9.4306 15.3016C9.1766 15.1111 8.82739 15.0159 8.50996 15.0794C5.97027 15.4286 3.68458 16.8572 2.25602 19.0159C1.97031 19.4286 1.71632 19.9049 1.52588 20.3493C1.43067 20.5398 1.46238 20.762 1.5576 20.9525C1.81159 21.3969 2.12903 21.8414 2.41474 22.2223C2.85916 22.8255 3.33537 23.3652 3.87508 23.8731C4.3195 24.3175 4.82743 24.7302 5.33541 25.1429C7.84332 27.016 10.8592 28.0001 13.9703 28.0001C17.0814 28.0001 20.0973 27.0159 22.6052 25.1429C23.1132 24.762 23.6211 24.3175 24.0656 23.8731C24.5735 23.3652 25.0814 22.8255 25.5259 22.2223C25.8433 21.8096 26.1291 21.3969 26.3831 20.9525C26.5417 20.762 26.5734 20.5397 26.4782 20.3493Z" fill="#131313" fill-opacity="0.8"/>
</svg>
